<svg xmlns="http://www.w3.org/2000/svg" width="48" height="48" fill="none" aria-labelledby="blz-icon-title-overwatch-2-dark" viewBox="0 0 48 48" part="icon"><title id="blz-icon-title-overwatch-2-dark">Overwatch 2</title><path fill="#ED6516" d="M13.9 13.901a14.284 14.284 0 0 1 20.2 0l4.043-4.042a20 20 0 0 0-28.286 0z"></path><path fill="#333E48" d="m39.312 11.135-4.063 4.062a14.29 14.29 0 0 1 .995 16.159L28.891 24l-4.006-9.413h-.02V27.31l7.938 7.938a14.29 14.29 0 0 1-17.606 0l7.939-7.938V14.636l-4.027 9.365-7.355 7.355a14.29 14.29 0 0 1 .997-16.159l-4.063-4.062a20.001 20.001 0 1 0 30.624 0"></path></svg>