<svg width="auto" viewBox="0 0 41 40" preserveAspectRatio="xMidYMid meet" fill="none" xmlns="http://www.w3.org/2000/svg">
<g id='icon'>
<path d="M21.5575 16.446C22.9784 16.4433 24.3743 16.0733 25.61 15.3719C26.8457 14.6705 27.8791 13.6616 28.6099 12.4431C30.5629 13.8333 32.0688 15.7623 32.9433 17.9944C34.7968 18.0183 36.6182 18.4809 38.2584 19.3444C37.7991 16.8728 36.7994 14.5333 35.3305 12.4932C33.8616 10.453 31.9599 8.76277 29.7616 7.54327C29.6295 5.95094 29.0365 4.43158 28.0548 3.1709C27.0732 1.91023 25.7454 0.962866 24.234 0.444599C22.7226 -0.0736675 21.0929 -0.140384 19.5442 0.252615C17.9955 0.645614 16.5948 1.48129 15.5134 2.65751C14.432 3.83373 13.7166 5.29954 13.4549 6.87575C13.1931 8.45196 13.3962 10.0703 14.0394 11.5329C14.6825 12.9956 15.7378 14.2392 17.0763 15.1117C18.4149 15.9842 19.9786 16.4479 21.5764 16.446H21.5575Z" fill="white"/>
<path d="M9.34108 21.3364C9.54678 19.0134 10.415 16.7983 11.8428 14.9544C10.8242 13.4951 10.1527 11.8224 9.87928 10.064C8.19316 11.6493 6.84868 13.5624 5.9282 15.6858C5.00772 17.8092 4.53047 20.0983 4.52613 22.4127C4.52613 22.5448 4.52613 22.677 4.52613 22.8092C2.9166 23.9292 1.76036 25.5875 1.26584 27.485C0.771306 29.3825 0.971047 31.3942 1.82915 33.1574C2.68726 34.9205 4.14733 36.319 5.94572 37.1005C7.74411 37.882 9.76252 37.9952 11.637 37.4196C13.5115 36.844 15.1186 35.6174 16.1684 33.9613C17.2182 32.3051 17.6415 30.3283 17.3622 28.3874C17.0828 26.4465 16.1192 24.6694 14.6449 23.3765C13.1706 22.0836 11.2829 21.36 9.32218 21.3364H9.34108Z" fill="white"/>
<path d="M32.7732 21.563C30.5923 21.563 28.5007 22.4293 26.9586 23.9715C25.4165 25.5136 24.5502 27.6051 24.5502 29.786C24.5486 31.2413 24.94 32.6699 25.683 33.9211C24.3605 34.4003 22.9639 34.6431 21.5573 34.6386C21.0236 34.6348 20.4907 34.597 19.9618 34.5253C19.2087 36.1414 18.1021 37.5675 16.7236 38.6982C18.8505 39.3349 21.082 39.545 23.2903 39.3166C25.4986 39.0882 27.64 38.4256 29.5915 37.3671C30.7142 37.8388 31.9277 38.0553 33.1443 38.0008C34.3608 37.9464 35.5502 37.6224 36.6263 37.0523C37.7024 36.4822 38.6384 35.6802 39.3668 34.7042C40.0952 33.7283 40.5977 32.6027 40.838 31.4089C41.0784 30.215 41.0507 28.9827 40.7567 27.8009C40.4627 26.6191 39.9099 25.5174 39.1382 24.5753C38.3665 23.6332 37.3951 22.8743 36.2944 22.3533C35.1936 21.8324 33.991 21.5624 32.7732 21.563Z" fill="white"/>
</g>
</svg>
